HIERARCHY
ROOT Hips
{
	OFFSET -0.001795 -0.223333 0.028219
	CHANNELS 6 Xposition Yposition Zposition Zrotation Yrotation Xrotation 
	JOINT LeftUpLeg
	{
		OFFSET 0.069520 -0.091406 -0.006815
		CHANNELS 3 Zrotation Yrotation Xrotation
		JOINT LeftLeg
		{
			OFFSET 0.034277 -0.375199 -0.004496
			CHANNELS 3 Zrotation Yrotation Xrotation
			JOINT LeftFoot
			{
				OFFSET -0.013596 -0.397961 -0.043693
				CHANNELS 3 Zrotation Yrotation Xrotation
				JOINT LeftToe
				{
					OFFSET 0.026358 -0.055791 0.119288
					CHANNELS 3 Zrotation Yrotation Xrotation
					End Site
					{
						OFFSET 0.000000 0.000000 0.000000
					}
				}
			}
		}
	}
	JOINT RightUpLeg
	{
		OFFSET -0.067670 -0.090522 -0.004320
		CHANNELS 3 Zrotation Yrotation Xrotation
		JOINT RightLeg
		{
			OFFSET -0.038290 -0.382569 -0.008850
			CHANNELS 3 Zrotation Yrotation Xrotation
			JOINT RightFoot
			{
				OFFSET 0.015774 -0.398415 -0.042312
				CHANNELS 3 Zrotation Yrotation Xrotation
				JOINT RightToe
				{
					OFFSET -0.025372 -0.048144 0.123348
					CHANNELS 3 Zrotation Yrotation Xrotation
					End Site
					{
						OFFSET 0.000000 0.000000 0.000000
					}
				}
			}
		}
	}
	JOINT Spine
	{
		OFFSET -0.002533 0.108963 -0.026696
		CHANNELS 3 Zrotation Yrotation Xrotation
		JOINT Spine1
		{
			OFFSET 0.005487 0.135180 0.001092
			CHANNELS 3 Zrotation Yrotation Xrotation
			JOINT Spine2
			{
				OFFSET 0.001457 0.052922 0.025425
				CHANNELS 3 Zrotation Yrotation Xrotation
				JOINT Neck
				{
					OFFSET -0.002778 0.213870 -0.042857
					CHANNELS 3 Zrotation Yrotation Xrotation
					JOINT Head
					{
						OFFSET 0.005152 0.064970 0.051349
						CHANNELS 3 Zrotation Yrotation Xrotation
						End Site
						{
							OFFSET 0.000000 0.000000 0.000000
						}
					}
				}
				JOINT LeftShoulder
				{
					OFFSET 0.078845 0.121749 -0.034090
					CHANNELS 3 Zrotation Yrotation Xrotation
					JOINT LeftArm
					{
						OFFSET 0.090977 0.030469 -0.008868
						CHANNELS 3 Zrotation Yrotation Xrotation
						JOINT LeftForeArm
						{
							OFFSET 0.259612 -0.012772 -0.027456
							CHANNELS 3 Zrotation Yrotation Xrotation
							JOINT LeftHand
							{
								OFFSET 0.249234 0.008986 -0.001171
								CHANNELS 3 Zrotation Yrotation Xrotation
								End Site
								{
									OFFSET 0.000000 0.000000 0.000000
								}
							}
						}
					}
				}
				JOINT RightShoulder
				{
					OFFSET -0.081759 0.118833 -0.038615
					CHANNELS 3 Zrotation Yrotation Xrotation
					JOINT RightArm
					{
						OFFSET -0.096012 0.032551 -0.009143
						CHANNELS 3 Zrotation Yrotation Xrotation
						JOINT RightForeArm
						{
							OFFSET -0.253742 -0.013329 -0.021401
							CHANNELS 3 Zrotation Yrotation Xrotation
							JOINT RightHand
							{
								OFFSET -0.255298 0.007772 -0.005559
								CHANNELS 3 Zrotation Yrotation Xrotation
								End Site
								{
									OFFSET 0.000000 0.000000 0.000000
								}
							}
						}
					}
				}
			}
		}
	}
}
MOTION
Frames: 6
Frame Time: 0.050000
0.000000 0.950414 0.000000 -1.019752 -0.473471 -0.679882 1.892878 0.190120 2.774100 6.662370 0.655637 -15.012752 -4.566082 -0.024471 18.994356 0.000000 0.000000 0.000000 -0.707609 -0.132738 1.585286 -1.065119 -0.018272 -2.675671 3.312324 7.208941 1.901189 0.000000 0.000000 0.000000 1.395371 -0.029179 0.397202 -1.087283 0.536630 -0.928471 -0.093971 1.348248 5.114067 2.444649 -0.647092 -11.900996 0.000000 0.000000 0.000000 -21.546093 -3.072947 -0.685333 -52.268171 -4.419718 -4.338620 -12.061121 -20.333140 2.875001 0.000000 0.000000 0.000000 19.809510 2.378994 -0.237874 57.664618 5.706935 -3.010681 8.688119 20.975373 2.185911 0.000000 0.000000 0.000000 
0.000134 0.949377 0.000884 -1.074271 -0.584406 -0.419656 1.957904 0.216356 3.163308 6.638486 0.756027 -16.070764 -4.553438 0.043204 19.174481 0.000000 0.000000 0.000000 -1.285762 -0.115925 1.645138 0.046098 -0.130274 -3.206736 3.406235 7.400007 1.959175 0.000000 0.000000 0.000000 1.363009 0.013945 -0.436176 -1.722430 0.826928 0.195653 0.447394 0.856689 4.616785 1.791232 -0.138657 -13.340084 0.000000 0.000000 0.000000 -22.142197 -2.559604 -0.851940 -51.907299 -4.817024 -4.131910 -12.481622 -20.466467 2.992394 0.000000 0.000000 0.000000 19.359500 2.585967 -0.292022 58.452662 5.202492 -3.207800 8.949314 21.870274 2.304677 0.000000 0.000000 0.000000 
0.000261 0.949249 0.001454 -0.743659 -0.339433 -0.492883 1.481547 0.215919 2.941782 6.809515 0.710141 -15.562921 -4.631447 -0.116461 18.960472 0.000000 0.000000 0.000000 -1.532239 -0.117732 1.758958 -0.154503 -0.112200 -3.144773 3.254589 7.182596 1.739676 0.000000 0.000000 0.000000 1.210485 0.007237 -0.291922 -1.602531 0.782810 -1.291247 -0.089207 0.578173 5.400634 1.235275 0.188861 -13.144155 0.000000 0.000000 0.000000 -21.491215 -2.789309 -0.619985 -52.244785 -4.714167 -4.287451 -12.480399 -19.651453 2.877428 0.000000 0.000000 0.000000 20.645001 3.238532 -0.003007 57.342085 4.702683 -3.476615 8.566136 22.115101 2.269827 0.000000 0.000000 0.000000 
0.000279 0.949073 0.002041 -0.878885 -0.071158 -0.576525 1.726011 0.228535 3.242529 6.619375 0.737465 -15.957329 -4.793896 -0.283912 19.016316 0.000000 0.000000 0.000000 -1.538356 -0.138005 1.975957 0.148169 -0.139414 -3.235703 3.175348 6.996016 1.735020 0.000000 0.000000 0.000000 0.783206 0.028528 -0.699006 -1.635414 0.792012 -0.524045 0.543648 -0.091964 4.913225 0.712390 0.430262 -12.657560 0.000000 0.000000 0.000000 -21.525685 -2.215862 -0.775363 -52.508618 -5.039197 -4.165885 -12.332017 -19.456618 2.843081 0.000000 0.000000 0.000000 20.340430 3.809366 0.130881 57.266406 4.412658 -3.530668 8.806025 22.175069 2.284751 0.000000 0.000000 0.000000 
0.000256 0.949536 0.002532 -0.887620 0.113128 -0.848680 1.566752 0.247176 3.405694 6.910816 0.720319 -15.720838 -4.892201 -0.407718 18.982199 0.000000 0.000000 0.000000 -1.536191 -0.185311 2.495143 0.176812 -0.153124 -3.534519 3.176348 6.885270 1.910155 0.000000 0.000000 0.000000 0.701111 0.020845 -0.520780 -1.470305 0.716407 -0.662472 0.324647 -0.068682 4.882901 0.611586 0.482795 -12.282220 0.000000 0.000000 0.000000 -21.348566 -2.673891 -0.553645 -52.405227 -5.106539 -4.115624 -12.488486 -19.054015 2.799891 0.000000 0.000000 0.000000 20.566676 3.745602 0.125503 57.018346 4.398399 -3.526926 8.884783 22.282651 2.316991 0.000000 0.000000 0.000000 
0.000231 0.949961 0.002945 -0.944916 0.439509 -0.937846 1.751965 0.248401 3.547793 6.670807 0.721213 -15.859182 -5.093457 -0.597084 19.101750 0.000000 0.000000 0.000000 -1.536963 -0.207930 2.728326 0.329089 -0.169458 -3.658577 3.103284 6.631198 2.034264 0.000000 0.000000 0.000000 0.420850 0.022717 -0.556472 -1.326991 0.651570 -0.810212 0.511357 -0.497047 5.125679 0.304504 0.660724 -12.356599 0.000000 0.000000 0.000000 -21.656021 -2.650386 -0.497561 -52.313174 -5.235084 -4.098464 -12.244103 -19.227733 2.797447 0.000000 0.000000 0.000000 20.643105 4.403905 0.414979 56.725030 4.491205 -3.478471 8.738050 22.179324 2.268768 0.000000 0.000000 0.000000 
